<svg width="91" height="21" viewBox="0 0 91 21" fill="none" xmlns="http://www.w3.org/2000/svg">
<g clip-path="url(#clip0_104_1975)">
<path d="M28.7199 3.87226C28.3907 2.64225 27.424 1.67565 26.194 1.34639C23.9669 0.749024 15.0322 0.749023 15.0322 0.749023C15.0322 0.749023 6.09761 0.749024 3.87042 1.34639C2.64042 1.67565 1.67382 2.64225 1.34456 3.87226C0.747193 6.09944 0.747192 10.749 0.747192 10.749C0.747192 10.749 0.747193 15.3986 1.34456 17.6258C1.67382 18.8558 2.64042 19.8224 3.87042 20.1516C6.09761 20.749 15.0322 20.749 15.0322 20.749C15.0322 20.749 23.9669 20.749 26.194 20.1516C27.424 19.8224 28.3907 18.8558 28.7199 17.6258C29.3173 15.3986 29.3173 10.749 29.3173 10.749C29.3173 10.749 29.3149 6.09944 28.7199 3.87226Z" fill="#FF0000"/>
<path d="M12.1725 15.0344L19.5949 10.7494L12.1725 6.46436V15.0344Z" fill="white"/>
<path d="M35.3496 13.7526L32.1417 2.16748H34.9404L36.0646 7.41912C36.3515 8.71263 36.5608 9.81564 36.6972 10.7282H36.7795C36.8736 10.0743 37.0853 8.97839 37.4122 7.43794L38.5763 2.16748H41.375L38.1271 13.7526V19.31H35.3473V13.7526H35.3496Z" fill="white"/>
<path d="M42.217 18.9427C41.6526 18.5617 41.2504 17.969 41.0105 17.1647C40.773 16.3604 40.6531 15.2927 40.6531 13.9568V12.1388C40.6531 10.7912 40.7895 9.70707 41.0623 8.89098C41.3351 8.0749 41.7608 7.47753 42.3393 7.10359C42.9179 6.72965 43.6775 6.5415 44.6183 6.5415C45.5449 6.5415 46.2857 6.732 46.8454 7.113C47.4028 7.49399 47.812 8.09136 48.0707 8.90039C48.3294 9.71177 48.4588 10.7912 48.4588 12.1388V13.9568C48.4588 15.2927 48.3318 16.3651 48.0802 17.1741C47.8285 17.9855 47.4193 18.5782 46.8548 18.9521C46.2904 19.3261 45.5237 19.5142 44.5571 19.5142C43.5599 19.5165 42.7815 19.3237 42.217 18.9427ZM45.3826 16.9813C45.5378 16.5721 45.6178 15.9065 45.6178 14.9799V11.0782C45.6178 10.1798 45.5402 9.52127 45.3826 9.10735C45.225 8.69108 44.9499 8.48412 44.5547 8.48412C44.1738 8.48412 43.9033 8.69108 43.7481 9.10735C43.5905 9.52363 43.5129 10.1798 43.5129 11.0782V14.9799C43.5129 15.9065 43.5881 16.5744 43.7387 16.9813C43.8892 17.3905 44.1596 17.5951 44.5547 17.5951C44.9499 17.5951 45.225 17.3905 45.3826 16.9813Z" fill="white"/>
<path d="M57.5626 19.3124H55.3566L55.112 17.779H55.0509C54.4511 18.9361 53.5527 19.5146 52.3533 19.5146C51.5231 19.5146 50.9093 19.2418 50.5142 18.6986C50.1191 18.1529 49.9215 17.3016 49.9215 16.1445V6.78653H52.7414V15.9798C52.7414 16.5396 52.8025 16.937 52.9248 17.1746C53.0471 17.4121 53.2517 17.532 53.5386 17.532C53.7832 17.532 54.0184 17.4568 54.2442 17.3063C54.47 17.1557 54.6346 16.9652 54.7451 16.7348V6.78418H57.5626V19.3124Z" fill="white"/>
<path d="M65.2227 4.4366H62.424V19.3119H59.6653V4.4366H56.8666V2.16943H65.2227V4.4366Z" fill="white"/>
<path d="M72.024 19.3124H69.818L69.5734 17.779H69.5123C68.9126 18.9361 68.0142 19.5146 66.8147 19.5146C65.9845 19.5146 65.3707 19.2418 64.9756 18.6986C64.5805 18.1529 64.3829 17.3016 64.3829 16.1445V6.78653H67.2028V15.9798C67.2028 16.5396 67.2639 16.937 67.3862 17.1746C67.5085 17.4121 67.7131 17.532 68.0001 17.532C68.2446 17.532 68.4798 17.4568 68.7056 17.3063C68.9314 17.1557 69.096 16.9652 69.2065 16.7348V6.78418H72.024V19.3124Z" fill="white"/>
<path d="M81.3562 8.78772C81.1845 7.99751 80.9093 7.42601 80.5284 7.07088C80.1474 6.71576 79.6229 6.53937 78.955 6.53937C78.4376 6.53937 77.9531 6.68518 77.5039 6.97916C77.0547 7.27314 76.7066 7.65649 76.462 8.13391H76.4409V1.53467H73.7245V19.3098H76.0528L76.3397 18.1245H76.4009C76.6196 18.5478 76.9465 18.8794 77.3816 19.1264C77.8167 19.371 78.3012 19.4933 78.8327 19.4933C79.7852 19.4933 80.4884 19.0535 80.9376 18.1762C81.3868 17.2966 81.6125 15.9255 81.6125 14.0582V12.0756C81.6125 10.6762 81.5255 9.57794 81.3562 8.78772ZM78.7715 13.8982C78.7715 14.8107 78.7339 15.5257 78.6586 16.0431C78.5834 16.5605 78.4587 16.9298 78.28 17.1461C78.1036 17.3648 77.8637 17.473 77.565 17.473C77.3322 17.473 77.1182 17.4189 76.9206 17.3084C76.7231 17.2002 76.5632 17.0356 76.4409 16.8192V9.70964C76.5349 9.36862 76.6996 9.09111 76.9324 8.87239C77.1629 8.65367 77.4169 8.54548 77.6873 8.54548C77.9743 8.54548 78.1953 8.65837 78.3506 8.8818C78.5081 9.10757 78.6163 9.48387 78.6775 10.0154C78.7386 10.5469 78.7692 11.3018 78.7692 12.2825V13.8982H78.7715Z" fill="white"/>
<path d="M85.6129 14.6202C85.6129 15.4245 85.6364 16.0266 85.6835 16.4288C85.7305 16.8309 85.8293 17.1226 85.9798 17.3084C86.1303 17.4918 86.3608 17.5835 86.6736 17.5835C87.0946 17.5835 87.3862 17.4189 87.5414 17.092C87.699 16.7651 87.7837 16.2195 87.7978 15.4575L90.2296 15.6009C90.2437 15.7091 90.2507 15.8596 90.2507 16.0501C90.2507 17.2072 89.9332 18.0727 89.3006 18.6442C88.668 19.2157 87.7719 19.5026 86.6148 19.5026C85.2249 19.5026 84.2512 19.0675 83.6938 18.195C83.1341 17.3225 82.8566 15.9749 82.8566 14.1498V11.9626C82.8566 10.0835 83.1459 8.71008 83.7244 7.84461C84.303 6.97913 85.2931 6.54639 86.6971 6.54639C87.6637 6.54639 88.4069 6.72278 88.9243 7.07791C89.4417 7.43303 89.8062 7.98336 90.0179 8.7336C90.2296 9.48383 90.3354 10.5186 90.3354 11.8403V13.9852H85.6129V14.6202ZM85.9704 8.71714C85.8269 8.89352 85.7329 9.1828 85.6835 9.58496C85.6364 9.98713 85.6129 10.5962 85.6129 11.4147V12.3131H87.6755V11.4147C87.6755 10.6104 87.6473 10.0012 87.5932 9.58496C87.5391 9.16869 87.4403 8.87706 87.2968 8.70538C87.1534 8.53605 86.9323 8.44903 86.6336 8.44903C86.3326 8.45138 86.1115 8.54075 85.9704 8.71714Z" fill="white"/>
</g>
<defs>
<clipPath id="clip0_104_1975">
<rect width="90" height="20" fill="white" transform="translate(0.747192 0.749023)"/>
</clipPath>
</defs>
</svg>
